<svg xmlns="http://www.w3.org/2000/svg" xmlns:xlink="http://www.w3.org/1999/xlink" style="margin:auto;background:rgba(NaN, NaN, NaN, 0);display:block;z-index:1;position:relative" width="2131" height="1024" preserveAspectRatio="xMidYMid"
     viewBox="0 0 2131 1024">
    <g transform="translate(1065.5,512) scale(1,1) translate(-1065.5,-512)">
        <path id="path0" d="M 884.3750505763957 170.6471215073779
c 0 24.235727961049037 -5.9300185436609345 6.9613261164715325 -12.891344660132466 6.9613261164715325
S 858.5923612561306 194.88284946842694 858.5923612561306 170.6471215073779
s 5.9300185436609345 -6.9613261164715325 12.891344660132466 -6.9613261164715325
S 884.3750505763957 146.41139354632887 884.3750505763957 170.6471215073779
z" fill="none" stroke="none"></path>
        <circle cx="0" cy="0" r="6.852968186289938" fill="#082465">
            <animateMotion begin="-3.8854660209523284s" dur="10s" repeatCount="indefinite">
                <mpath xlink:href="#path0"></mpath>
            </animateMotion>
        </circle>
        <path id="path1" d="M 240.99515475107611 595.6030079365248
c 0 29.734902998904506 -7.275561372072378 8.540876393302359 -15.816437765374737 8.540876393302359
S 209.36227922032666 625.3379109354294 209.36227922032666 595.6030079365248
s 7.275561372072378 -8.540876393302359 15.816437765374737 -8.540876393302359
S 240.99515475107611 565.8681049376203 240.99515475107611 595.6030079365248
z" fill="none" stroke="none"></path>
        <circle cx="0" cy="0" r="7.3794784749084545" fill="#082465">
            <animateMotion begin="-7.318513636543589s" dur="10s" repeatCount="indefinite">
                <mpath xlink:href="#path1"></mpath>
            </animateMotion>
        </circle>
        <path id="path2" d="M 680.9265091563694 728.8218648839318
c 0 21.801595293483704 -5.334432890958778 6.262160350255958 -11.596593241214737 6.262160350255958
S 657.73332267394 750.6234601774155 657.73332267394 728.8218648839318
s 5.334432890958778 -6.262160350255958 11.596593241214737 -6.262160350255958
S 680.9265091563694 707.020269590448 680.9265091563694 728.8218648839318
z" fill="none" stroke="none"></path>
        <circle cx="0" cy="0" r="5.778939920619985" fill="#ffc107">
            <animateMotion begin="-0.5971228040265508s" dur="10s" repeatCount="indefinite">
                <mpath xlink:href="#path2"></mpath>
            </animateMotion>
        </circle>
        <path id="path3" d="M 132.13351922805526 516.2922208951427
c 0 25.455260405025108 -6.228414779952952 7.311617350379553 -13.540032130332504 7.311617350379553
S 105.05345496739027 541.7474813001678 105.05345496739027 516.2922208951427
s 6.228414779952952 -7.311617350379553 13.540032130332504 -7.311617350379553
S 132.13351922805526 490.8369604901176 132.13351922805526 516.2922208951427
z" fill="none" stroke="none"></path>
        <circle cx="0" cy="0" r="7.596375261778357" fill="#082465">
            <animateMotion begin="-8.309994157259835s" dur="10s" repeatCount="indefinite">
                <mpath xlink:href="#path3"></mpath>
            </animateMotion>
        </circle>
        <path id="path4" d="M 1745.304174907324 1011.6569176052031
c 0 25.45683220712678 -6.228799369828892 7.31206882545131 -13.540868195280202 7.31206882545131
S 1718.2224385167638 1037.1137498123298 1718.2224385167638 1011.6569176052031
s 6.228799369828892 -7.31206882545131 13.540868195280202 -7.31206882545131
S 1745.304174907324 986.2000853980763 1745.304174907324 1011.6569176052031
z" fill="none" stroke="none"></path>
        <circle cx="0" cy="0" r="7.330805159935576" fill="#082465">
            <animateMotion begin="-4.910387190063044s" dur="10s" repeatCount="indefinite">
                <mpath xlink:href="#path4"></mpath>
            </animateMotion>
        </circle>
        <path id="path5" d="M 1025.1596189723614 867.9860187333687
c 0 37.234708007914115 -9.110620044489623 10.695075704400864 -19.805695748890486 10.695075704400864
S 985.5482274745804 905.2207267412829 985.5482274745804 867.9860187333687
s 9.110620044489623 -10.695075704400864 19.805695748890486 -10.695075704400864
S 1025.1596189723614 830.7513107254546 1025.1596189723614 867.9860187333687
z" fill="none" stroke="none"></path>
        <circle cx="0" cy="0" r="7.374441706887315" fill="#082465">
            <animateMotion begin="-5.626197098515615s" dur="10s" repeatCount="indefinite">
                <mpath xlink:href="#path5"></mpath>
            </animateMotion>
        </circle>
        <path id="path6" d="M 1744.1604631306845 52.27555310787698
c 0 20.956669821402834 -5.127695807364522 6.019468991254005 -11.147164798618528 6.019468991254005
S 1721.8661335334473 73.23222292927981 1721.8661335334473 52.27555310787698
s 5.127695807364522 -6.019468991254005 11.147164798618528 -6.019468991254005
S 1744.1604631306845 31.318883286474147 1744.1604631306845 52.27555310787698
z" fill="none" stroke="none"></path>
        <circle cx="0" cy="0" r="4.213441063432389" fill="#082465">
            <animateMotion begin="-4.529467445840323s" dur="10s" repeatCount="indefinite">
                <mpath xlink:href="#path6"></mpath>
            </animateMotion>
        </circle>
        <path id="path7" d="M 1462.2823793820253 352.3100790647525
c 0 25.456550941065426 -6.228730549409625 7.311988036263474 -13.5407185856731 7.311988036263474
S 1435.200942210679 377.7666300058179 1435.200942210679 352.3100790647525
s 6.228730549409625 -7.311988036263474 13.5407185856731 -7.311988036263474
S 1462.2823793820253 326.85352812368706 1462.2823793820253 352.3100790647525
z" fill="none" stroke="none"></path>
        <circle cx="0" cy="0" r="5.782630721646701" fill="#082465">
            <animateMotion begin="-7.538824347638389s" dur="10s" repeatCount="indefinite">
                <mpath xlink:href="#path7"></mpath>
            </animateMotion>
        </circle>
        <path id="path8" d="M 1572.873056178821 56.14630932116951
c 0 36.117324667641114 -8.83721773782708 10.374125170492661 -19.211342908319743 10.374125170492661
S 1534.4503703621815 92.26363398881062 1534.4503703621815 56.14630932116951
s 8.83721773782708 -10.374125170492661 19.211342908319743 -10.374125170492661
S 1572.873056178821 20.028984653528397 1572.873056178821 56.14630932116951
z" fill="none" stroke="none"></path>
        <circle cx="0" cy="0" r="7.637278166210907" fill="#082465">
            <animateMotion begin="-3.3113192189899188s" dur="10s" repeatCount="indefinite">
                <mpath xlink:href="#path8"></mpath>
            </animateMotion>
        </circle>
        <path id="path9" d="M 22.977016710808847 1010.2464410762612
c 0 29.159668416893826 -7.134812484984659 8.375649438895035 -15.510461923879696 8.375649438895035
S -8.043907136950544 1039.406109493155 -8.043907136950544 1010.2464410762612
s 7.134812484984659 -8.375649438895035 15.510461923879696 -8.375649438895035
S 22.977016710808847 981.0867726593674 22.977016710808847 1010.2464410762612
z" fill="none" stroke="none"></path>
        <circle cx="0" cy="0" r="5.500733047528473" fill="#ffc107">
            <animateMotion begin="-7.837757121072326s" dur="10s" repeatCount="indefinite">
                <mpath xlink:href="#path9"></mpath>
            </animateMotion>
        </circle>
        <path id="path10" d="M 1636.7956967241712 971.7074905403936
c 0 34.84663806588728 -8.526305058674547 10.009140721052729 -18.535445779727276 10.009140721052729
S 1599.7248051647166 1006.5541286062809 1599.7248051647166 971.7074905403936
s 8.526305058674547 -10.009140721052729 18.535445779727276 -10.009140721052729
S 1636.7956967241712 936.8608524745063 1636.7956967241712 971.7074905403936
z" fill="none" stroke="none"></path>
        <circle cx="0" cy="0" r="7.83269083986885" fill="#082465">
            <animateMotion begin="-6.492551045495585s" dur="10s" repeatCount="indefinite">
                <mpath xlink:href="#path10"></mpath>
            </animateMotion>
        </circle>
        <path id="path11" d="M 1521.3430197116952 140.86647973585937
c 0 26.88839432657386 -6.5790752075659436 7.723262200186109 -14.302337407752052 7.723262200186109
S 1492.7383448961912 167.75487406243323 1492.7383448961912 140.86647973585937
s 6.5790752075659436 -7.723262200186109 14.302337407752052 -7.723262200186109
S 1521.3430197116952 113.97808540928551 1521.3430197116952 140.86647973585937
z" fill="none" stroke="none"></path>
        <circle cx="0" cy="0" r="4.324909364745901" fill="#ffc107">
            <animateMotion begin="-3.1034014763544238s" dur="10s" repeatCount="indefinite">
                <mpath xlink:href="#path11"></mpath>
            </animateMotion>
        </circle>
        <path id="path12" d="M 128.4441684216943 304.98818835441847
c 0 35.697471585554126 -8.734487728380264 10.253529072446398 -18.98801680082666 10.253529072446398
S 90.46813482004096 340.6856599399726 90.46813482004096 304.98818835441847
s 8.734487728380264 -10.253529072446398 18.98801680082666 -10.253529072446398
S 128.4441684216943 269.29071676886434 128.4441684216943 304.98818835441847
z" fill="none" stroke="none"></path>
        <circle cx="0" cy="0" r="4.136935451185202" fill="#ffc107">
            <animateMotion begin="-4.325883583496742s" dur="10s" repeatCount="indefinite">
                <mpath xlink:href="#path12"></mpath>
            </animateMotion>
        </circle>
        <path id="path13" d="M 931.9661040716059 222.60020585379047
c 0 27.60554934082278 -6.754549306797062 7.929253534066118 -14.68380284086318 7.929253534066118
S 902.5984983898794 250.20575519461326 902.5984983898794 222.60020585379047
s 6.754549306797062 -7.929253534066118 14.68380284086318 -7.929253534066118
S 931.9661040716059 194.99465651296768 931.9661040716059 222.60020585379047
z" fill="none" stroke="none"></path>
        <circle cx="0" cy="0" r="7.031348873820943" fill="#082465">
            <animateMotion begin="-0.48448840536304827s" dur="10s" repeatCount="indefinite">
                <mpath xlink:href="#path13"></mpath>
            </animateMotion>
        </circle>
        <path id="path14" d="M 415.99405791743897 504.4421875435782
c 0 23.766715166444843 -5.815260093917354 6.8266096754682 -12.641869769385554 6.8266096754682
S 390.71031837866786 528.208902710023 390.71031837866786 504.4421875435782
s 5.815260093917354 -6.8266096754682 12.641869769385554 -6.8266096754682
S 415.99405791743897 480.67547237713336 415.99405791743897 504.4421875435782
z" fill="none" stroke="none"></path>
        <circle cx="0" cy="0" r="6.849407738346496" fill="#ffc107">
            <animateMotion begin="-2.65506872028914s" dur="10s" repeatCount="indefinite">
                <mpath xlink:href="#path14"></mpath>
            </animateMotion>
        </circle>
        <path id="path15" d="M 1314.8312954446535 79.94013335982675
c 0 32.49135404721458 -7.950012160488673 9.332622971008444 -17.282635131497116 9.332622971008444
S 1280.2660251816594 112.43148740704132 1280.2660251816594 79.94013335982675
s 7.950012160488673 -9.332622971008444 17.282635131497116 -9.332622971008444
S 1314.8312954446535 47.44877931261217 1314.8312954446535 79.94013335982675
z" fill="none" stroke="none"></path>
        <circle cx="0" cy="0" r="6.3629692192298135" fill="#082465">
            <animateMotion begin="-2.340262780242497s" dur="10s" repeatCount="indefinite">
                <mpath xlink:href="#path15"></mpath>
            </animateMotion>
        </circle>
        <path id="path16" d="M 616.6555163893563 871.0037693259919
c 0 25.851199182696377 -6.3252934170427295 7.42534444609364 -13.75063786313637 7.42534444609364
S 589.1542406630836 896.8549685086883 589.1542406630836 871.0037693259919
s 6.3252934170427295 -7.42534444609364 13.75063786313637 -7.42534444609364
S 616.6555163893563 845.1525701432955 616.6555163893563 871.0037693259919
z" fill="none" stroke="none"></path>
        <circle cx="0" cy="0" r="6.61381756756694" fill="#ffc107">
            <animateMotion begin="-4.435137377332714s" dur="10s" repeatCount="indefinite">
                <mpath xlink:href="#path16"></mpath>
            </animateMotion>
        </circle>
        <path id="path17" d="M 1406.4777770615879 409.08661392254976
c 0 37.495179095682104 -9.174352331922215 10.76989186790869 -19.944244199830905 10.76989186790869
S 1366.5892886619263 446.58179301823185 1366.5892886619263 409.08661392254976
s 9.174352331922215 -10.76989186790869 19.944244199830905 -10.76989186790869
S 1406.4777770615879 371.59143482686767 1406.4777770615879 409.08661392254976
z" fill="none" stroke="none"></path>
        <circle cx="0" cy="0" r="6.810886782588569" fill="#082465">
            <animateMotion begin="-6.561383478183931s" dur="10s" repeatCount="indefinite">
                <mpath xlink:href="#path17"></mpath>
            </animateMotion>
        </circle>
        <path id="path18" d="M 1139.8840829672552 777.350730275853
c 0 22.91214295437201 -5.606162637771874 6.581147444340896 -12.18731008211277 6.581147444340896
S 1115.5094628030295 800.2628732302251 1115.5094628030295 777.350730275853
s 5.606162637771874 -6.581147444340896 12.18731008211277 -6.581147444340896
S 1139.8840829672552 754.438587321481 1139.8840829672552 777.350730275853
z" fill="none" stroke="none"></path>
        <circle cx="0" cy="0" r="7.725390874792755" fill="#082465">
            <animateMotion begin="-4.2357077109615515s" dur="10s" repeatCount="indefinite">
                <mpath xlink:href="#path18"></mpath>
            </animateMotion>
        </circle>
        <path id="path19" d="M 499.6629159286447 803.0069998501981
c 0 26.465289370334713 -6.475549526784025 7.601732053181248 -14.077281579965273 7.601732053181248
S 471.5083527687141 829.4722892205328 471.5083527687141 803.0069998501981
s 6.475549526784025 -7.601732053181248 14.077281579965273 -7.601732053181248
S 499.6629159286447 776.5417104798634 499.6629159286447 803.0069998501981
z" fill="none" stroke="none"></path>
        <circle cx="0" cy="0" r="5.606655429683233" fill="#ffc107">
            <animateMotion begin="-5.181727953586879s" dur="10s" repeatCount="indefinite">
                <mpath xlink:href="#path19"></mpath>
            </animateMotion>
        </circle>
        <path id="path20" d="M 2007.212196799721 778.4527636489522
c 0 22.13386452731047 -5.415732809873838 6.357599385504072 -11.773332195377911 6.357599385504072
S 1983.6655324089652 800.5866281762627 1983.6655324089652 778.4527636489522
s 5.415732809873838 -6.357599385504072 11.773332195377911 -6.357599385504072
S 2007.212196799721 756.3188991216417 2007.212196799721 778.4527636489522
z" fill="none" stroke="none"></path>
        <circle cx="0" cy="0" r="5.98361553709718" fill="#ffc107">
            <animateMotion begin="-6.14401064098911s" dur="10s" repeatCount="indefinite">
                <mpath xlink:href="#path20"></mpath>
            </animateMotion>
        </circle>
        <path id="path21" d="M 649.5396731066511 805.9621208761785
c 0 32.24331426952772 -7.889321576586569 9.261377502949452 -17.15069907953602 9.261377502949452
S 615.238274947579 838.2054351457061 615.238274947579 805.9621208761785
s 7.889321576586569 -9.261377502949452 17.15069907953602 -9.261377502949452
S 649.5396731066511 773.7188066066508 649.5396731066511 805.9621208761785
z" fill="none" stroke="none"></path>
        <circle cx="0" cy="0" r="7.001744509454935" fill="#082465">
            <animateMotion begin="-3.0656001686427414s" dur="10s" repeatCount="indefinite">
                <mpath xlink:href="#path21"></mpath>
            </animateMotion>
        </circle>
        <path id="path22" d="M 1736.088819976192 218.22032104101908
c 0 34.936164136002986 -8.548210373702858 10.034855656085965 -18.58306602978882 10.034855656085965
S 1698.9226879166144 253.15648517702206 1698.9226879166144 218.22032104101908
s 8.548210373702858 -10.034855656085965 18.58306602978882 -10.034855656085965
S 1736.088819976192 183.2841569050161 1736.088819976192 218.22032104101908
z" fill="none" stroke="none"></path>
        <circle cx="0" cy="0" r="5.431264496195717" fill="#082465">
            <animateMotion begin="-6.035522678809033s" dur="10s" repeatCount="indefinite">
                <mpath xlink:href="#path22"></mpath>
            </animateMotion>
        </circle>
        <path id="path23" d="M 882.8643833977144 52.17330472091741
c 0 31.74961564603198 -7.76852297722059 9.119570451519824 -16.888093428740415 9.119570451519824
S 849.0881965402336 83.92292036694938 849.0881965402336 52.17330472091741
s 7.76852297722059 -9.119570451519824 16.888093428740415 -9.119570451519824
S 882.8643833977144 20.423689074885427 882.8643833977144 52.17330472091741
z" fill="none" stroke="none"></path>
        <circle cx="0" cy="0" r="5.690216698573676" fill="#082465">
            <animateMotion begin="-5.385597823071214s" dur="10s" repeatCount="indefinite">
                <mpath xlink:href="#path23"></mpath>
            </animateMotion>
        </circle>
        <path id="path24" d="M 1209.8245268822595 935.5181518556932
c 0 29.430869651405956 -7.201170233854648 8.45354766582937 -15.65471789968402 8.45354766582937
S 1178.5150910828913 964.9490215070991 1178.5150910828913 935.5181518556932
s 7.201170233854648 -8.45354766582937 15.65471789968402 -8.45354766582937
S 1209.8245268822595 906.0872822042872 1209.8245268822595 935.5181518556932
z" fill="none" stroke="none"></path>
        <circle cx="0" cy="0" r="4.874369707452327" fill="#ffc107">
            <animateMotion begin="-5.241410598625434s" dur="10s" repeatCount="indefinite">
                <mpath xlink:href="#path24"></mpath>
            </animateMotion>
        </circle>
        <path id="path25" d="M 584.2962262650237 865.8896346409383
c 0 33.14406450582063 -8.109717910998665 9.520103634650606 -17.62982154564927 9.520103634650606
S 549.0365831737251 899.033699146759 549.0365831737251 865.8896346409383
s 8.109717910998665 -9.520103634650606 17.62982154564927 -9.520103634650606
S 584.2962262650237 832.7455701351176 584.2962262650237 865.8896346409383
z" fill="none" stroke="none"></path>
        <circle cx="0" cy="0" r="4.579323078283606" fill="#082465">
            <animateMotion begin="-3.60228740835127s" dur="10s" repeatCount="indefinite">
                <mpath xlink:href="#path25"></mpath>
            </animateMotion>
        </circle>
        <path id="path26" d="M 438.7230839194238 613.4106504252537
c 0 29.047197755114684 -7.107293067740827 8.343344036043579 -15.450637103784405 8.343344036043579
S 407.821809711855 642.4578481803684 407.821809711855 613.4106504252537
s 7.107293067740827 -8.343344036043579 15.450637103784405 -8.343344036043579
S 438.7230839194238 584.363452670139 438.7230839194238 613.4106504252537
z" fill="none" stroke="none"></path>
        <circle cx="0" cy="0" r="6.964388290739688" fill="#082465">
            <animateMotion begin="-8.286166786067326s" dur="10s" repeatCount="indefinite">
                <mpath xlink:href="#path26"></mpath>
            </animateMotion>
        </circle>
        <path id="path27" d="M 254.65664287410704 122.81173551545245
c 0 19.534127921563606 -4.779627044637904 5.6108665306618875 -10.390493575299791 5.6108665306618875
S 233.87565572350746 142.34586343701605 233.87565572350746 122.81173551545245
s 4.779627044637904 -5.6108665306618875 10.390493575299791 -5.6108665306618875
S 254.65664287410704 103.27760759388885 254.65664287410704 122.81173551545245
z" fill="none" stroke="none"></path>
        <circle cx="0" cy="0" r="5.311016222231446" fill="#082465">
            <animateMotion begin="-4.400703245176021s" dur="10s" repeatCount="indefinite">
                <mpath xlink:href="#path27"></mpath>
            </animateMotion>
        </circle>
        <path id="path28" d="M 995.8185180114594 17.798890421698168
c 0 19.75456688435966 -4.83356423766247 5.6741841050820305 -10.5077483427445 5.6741841050820305
S 974.8030213259703 37.55345730605783 974.8030213259703 17.798890421698168
s 4.83356423766247 -5.6741841050820305 10.5077483427445 -5.6741841050820305
S 995.8185180114594 -1.9556764626614935 995.8185180114594 17.798890421698168
z" fill="none" stroke="none"></path>
        <circle cx="0" cy="0" r="7.84814084726567" fill="#082465">
            <animateMotion begin="-8.716348018171738s" dur="10s" repeatCount="indefinite">
                <mpath xlink:href="#path28"></mpath>
            </animateMotion>
        </circle>
        <path id="path29" d="M 1430.3710526724285 75.23015072744809
c 0 27.164218659305813 -6.646564140042911 7.802488338311245 -14.449052478354156 7.802488338311245
S 1401.4729477157202 102.39436938675391 1401.4729477157202 75.23015072744809
s 6.646564140042911 -7.802488338311245 14.449052478354156 -7.802488338311245
S 1430.3710526724285 48.065932068142274 1430.3710526724285 75.23015072744809
z" fill="none" stroke="none"></path>
        <circle cx="0" cy="0" r="4.448744739978436" fill="#082465">
            <animateMotion begin="-0.05100218030253956s" dur="10s" repeatCount="indefinite">
                <mpath xlink:href="#path29"></mpath>
            </animateMotion>
        </circle>
    </g>
</svg>
